<?xml version="1.0" encoding="UTF-8"?>
<svg width="100" height="100" viewBox="0 0 100 100" fill="none" xmlns="http://www.w3.org/2000/svg">
  <circle cx="50" cy="50" r="48" stroke="black" stroke-width="2" fill="none"/>
  <!-- Puzzle pieces -->
  <path d="M62 26H44V22C44 19.8 42.2 18 40 18H34C31.8 18 30 19.8 30 22V26H25C22.8 26 21 27.8 21 30V36C21 38.2 22.8 40 25 40H30V57C30 59.2 31.8 61 34 61H38C40.2 61 42 59.2 42 57V49H48C50.2 49 52 47.2 52 45V40H62C64.2 40 66 38.2 66 36V30C66 27.8 64.2 26 62 26Z" stroke="black" stroke-width="2.5" fill="none"/>
  <!-- Additional puzzle piece -->
  <path d="M74 63H68C68 65.8 65.8 68 63 68C60.2 68 58 65.8 58 63V56C58 53.8 56.2 52 54 52H48C45.8 52 44 53.8 44 56V62H49C51.8 62 54 64.2 54 67C54 69.8 51.8 72 49 72H44V78C44 80.2 45.8 82 48 82H54C56.2 82 58 80.2 58 78V72H66C68.2 72 70 70.2 70 68V67H74C76.2 67 78 65.2 78 63V48C78 45.8 76.2 44 74 44H68V50C68 52.8 65.8 55 63 55C60.2 55 58 52.8 58 50V44H50V56C50 57 50.8 58 52 58H54C57.8 58 61 61.2 61 65C61 68.8 57.8 72 54 72H52C50.8 72 50 71.2 50 70V66H66" stroke="black" stroke-width="2.5" fill="none"/>
</svg> 