<?xml version="1.0" encoding="UTF-8"?>
<svg width="100" height="100" viewBox="0 0 100 100" fill="none" xmlns="http://www.w3.org/2000/svg">
  <circle cx="50" cy="50" r="48" stroke="black" stroke-width="2" fill="none"/>
  <!-- Lightbulb body -->
  <path d="M50 25C41 25 34 32 34 41C34 47 37 52 42 54.5V62H58V54.5C63 52 66 47 66 41C66 32 59 25 50 25Z" fill="black"/>
  <!-- Lightbulb base -->
  <path d="M42 65H58V68H42V65Z" fill="black"/>
  <!-- Gear elements -->
  <path d="M36 27L32 22" stroke="black" stroke-width="2" stroke-linecap="round"/>
  <path d="M30 33L24 30" stroke="black" stroke-width="2" stroke-linecap="round"/>
  <path d="M27 44L20 44" stroke="black" stroke-width="2" stroke-linecap="round"/>
  <path d="M30 55L24 58" stroke="black" stroke-width="2" stroke-linecap="round"/>
  <path d="M64 27L68 22" stroke="black" stroke-width="2" stroke-linecap="round"/>
  <path d="M70 33L76 30" stroke="black" stroke-width="2" stroke-linecap="round"/>
  <path d="M73 44L80 44" stroke="black" stroke-width="2" stroke-linecap="round"/>
  <path d="M70 55L76 58" stroke="black" stroke-width="2" stroke-linecap="round"/>
  <path d="M50 20V14" stroke="black" stroke-width="2" stroke-linecap="round"/>
  <!-- Bottom line -->
  <path d="M44 75H56" stroke="black" stroke-width="2" stroke-linecap="round"/>
</svg> 